<?xml version="1.0" standalone="no"?><svg xmlns="http://www.w3.org/2000/svg" viewBox="0 0 1440 320"><path fill="#0099ff" fill-opacity="1" d="M0,96L40,128C80,160,160,224,240,224C320,224,400,160,480,165.3C560,171,640,245,720,245.3C800,245,880,171,960,160C1040,149,1120,203,1200,240C1280,277,1360,299,1400,309.3L1440,320L1440,320L1400,320C1360,320,1280,320,1200,320C1120,320,1040,320,960,320C880,320,800,320,720,320C640,320,560,320,480,320C400,320,320,320,240,320C160,320,80,320,40,320L0,320Z"></path></svg>